<svg height="2174" width="720" xmlns="http://www.w3.org/2000/svg">
<rect height="2174" fill="#555" width="720"></rect>
<text fill="#7f7" font-family="Courier New" font-size="12" xml:space="preserve">
<tspan x="10" y="26">18 megabytes installed</tspan>
<tspan x="10" y="42"></tspan>
<tspan x="10" y="58">node_modules</tspan>
<tspan x="10" y="74">└─┬ pm2-logrotate@2.2.0 </tspan>
<tspan x="10" y="90">  ├─┬ moment-timezone@0.5.5 </tspan>
<tspan x="10" y="106">  │ └── moment@2.18.1 </tspan>
<tspan x="10" y="122">  ├─┬ node-schedule@1.1.1 </tspan>
<tspan x="10" y="138">  │ ├── cron-parser@1.1.0 </tspan>
<tspan x="10" y="154">  │ └── long-timeout@0.0.2 </tspan>
<tspan x="10" y="170">  ├─┬ pm2@2.4.5 </tspan>
<tspan x="10" y="186">  │ ├── async@1.5.2 </tspan>
<tspan x="10" y="202">  │ ├── blessed@0.1.81 </tspan>
<tspan x="10" y="218">  │ ├─┬ chalk@1.1.3 </tspan>
<tspan x="10" y="234">  │ │ ├── ansi-styles@2.2.1 </tspan>
<tspan x="10" y="250">  │ │ ├── escape-string-regexp@1.0.5 </tspan>
<tspan x="10" y="266">  │ │ ├─┬ has-ansi@2.0.0 </tspan>
<tspan x="10" y="282">  │ │ │ └── ansi-regex@2.1.1 </tspan>
<tspan x="10" y="298">  │ │ ├── strip-ansi@3.0.1 </tspan>
<tspan x="10" y="314">  │ │ └── supports-color@2.0.0 </tspan>
<tspan x="10" y="330">  │ ├─┬ chokidar@1.6.1 </tspan>
<tspan x="10" y="346">  │ │ ├─┬ anymatch@1.3.0 </tspan>
<tspan x="10" y="362">  │ │ │ ├── arrify@1.0.1 </tspan>
<tspan x="10" y="378">  │ │ │ └─┬ micromatch@2.3.11 </tspan>
<tspan x="10" y="394">  │ │ │   ├─┬ arr-diff@2.0.0 </tspan>
<tspan x="10" y="410">  │ │ │   │ └── arr-flatten@1.0.3 </tspan>
<tspan x="10" y="426">  │ │ │   ├── array-unique@0.2.1 </tspan>
<tspan x="10" y="442">  │ │ │   ├─┬ braces@1.8.5 </tspan>
<tspan x="10" y="458">  │ │ │   │ ├─┬ expand-range@1.8.2 </tspan>
<tspan x="10" y="474">  │ │ │   │ │ └─┬ fill-range@2.2.3 </tspan>
<tspan x="10" y="490">  │ │ │   │ │   ├── is-number@2.1.0 </tspan>
<tspan x="10" y="506">  │ │ │   │ │   ├── isobject@2.1.0 </tspan>
<tspan x="10" y="522">  │ │ │   │ │   ├── randomatic@1.1.6 </tspan>
<tspan x="10" y="538">  │ │ │   │ │   └── repeat-string@1.6.1 </tspan>
<tspan x="10" y="554">  │ │ │   │ ├── preserve@0.2.0 </tspan>
<tspan x="10" y="570">  │ │ │   │ └── repeat-element@1.1.2 </tspan>
<tspan x="10" y="586">  │ │ │   ├─┬ expand-brackets@0.1.5 </tspan>
<tspan x="10" y="602">  │ │ │   │ └── is-posix-bracket@0.1.1 </tspan>
<tspan x="10" y="618">  │ │ │   ├── extglob@0.3.2 </tspan>
<tspan x="10" y="634">  │ │ │   ├── filename-regex@2.0.0 </tspan>
<tspan x="10" y="650">  │ │ │   ├─┬ kind-of@3.1.0 </tspan>
<tspan x="10" y="666">  │ │ │   │ └── is-buffer@1.1.5 </tspan>
<tspan x="10" y="682">  │ │ │   ├─┬ normalize-path@2.1.1 </tspan>
<tspan x="10" y="698">  │ │ │   │ └── remove-trailing-separator@1.0.1 </tspan>
<tspan x="10" y="714">  │ │ │   ├─┬ object.omit@2.0.1 </tspan>
<tspan x="10" y="730">  │ │ │   │ ├─┬ for-own@0.1.5 </tspan>
<tspan x="10" y="746">  │ │ │   │ │ └── for-in@1.0.2 </tspan>
<tspan x="10" y="762">  │ │ │   │ └── is-extendable@0.1.1 </tspan>
<tspan x="10" y="778">  │ │ │   ├─┬ parse-glob@3.0.4 </tspan>
<tspan x="10" y="794">  │ │ │   │ ├── glob-base@0.3.0 </tspan>
<tspan x="10" y="810">  │ │ │   │ └── is-dotfile@1.0.2 </tspan>
<tspan x="10" y="826">  │ │ │   └─┬ regex-cache@0.4.3 </tspan>
<tspan x="10" y="842">  │ │ │     ├── is-equal-shallow@0.1.3 </tspan>
<tspan x="10" y="858">  │ │ │     └── is-primitive@2.0.0 </tspan>
<tspan x="10" y="874">  │ │ ├── async-each@1.0.1 </tspan>
<tspan x="10" y="890">  │ │ ├── glob-parent@2.0.0 </tspan>
<tspan x="10" y="906">  │ │ ├── inherits@2.0.3 </tspan>
<tspan x="10" y="922">  │ │ ├─┬ is-binary-path@1.0.1 </tspan>
<tspan x="10" y="938">  │ │ │ └── binary-extensions@1.8.0 </tspan>
<tspan x="10" y="954">  │ │ ├─┬ is-glob@2.0.1 </tspan>
<tspan x="10" y="970">  │ │ │ └── is-extglob@1.0.0 </tspan>
<tspan x="10" y="986">  │ │ ├── path-is-absolute@1.0.1 </tspan>
<tspan x="10" y="1002">  │ │ └─┬ readdirp@2.1.0 </tspan>
<tspan x="10" y="1018">  │ │   ├── graceful-fs@4.1.11 </tspan>
<tspan x="10" y="1034">  │ │   ├─┬ minimatch@3.0.3 </tspan>
<tspan x="10" y="1050">  │ │   │ └─┬ brace-expansion@1.1.7 </tspan>
<tspan x="10" y="1066">  │ │   │   ├── balanced-match@0.4.2 </tspan>
<tspan x="10" y="1082">  │ │   │   └── concat-map@0.0.1 </tspan>
<tspan x="10" y="1098">  │ │   ├─┬ readable-stream@2.2.9 </tspan>
<tspan x="10" y="1114">  │ │   │ ├── buffer-shims@1.0.0 </tspan>
<tspan x="10" y="1130">  │ │   │ ├── core-util-is@1.0.2 </tspan>
<tspan x="10" y="1146">  │ │   │ ├── isarray@1.0.0 </tspan>
<tspan x="10" y="1162">  │ │   │ ├── process-nextick-args@1.0.7 </tspan>
<tspan x="10" y="1178">  │ │   │ ├── string_decoder@1.0.0 </tspan>
<tspan x="10" y="1194">  │ │   │ └── util-deprecate@1.0.2 </tspan>
<tspan x="10" y="1210">  │ │   └── set-immediate-shim@1.0.1 </tspan>
<tspan x="10" y="1226">  │ ├─┬ cli-table@0.3.1 </tspan>
<tspan x="10" y="1242">  │ │ └── colors@1.0.3 </tspan>
<tspan x="10" y="1258">  │ ├─┬ commander@2.9.0 </tspan>
<tspan x="10" y="1274">  │ │ └── graceful-readlink@1.0.1 </tspan>
<tspan x="10" y="1290">  │ ├── cron@1.2.1 </tspan>
<tspan x="10" y="1306">  │ ├─┬ debug@2.6.3 </tspan>
<tspan x="10" y="1322">  │ │ └── ms@0.7.2 </tspan>
<tspan x="10" y="1338">  │ ├── eventemitter2@1.0.5 </tspan>
<tspan x="10" y="1354">  │ ├── fclone@1.0.11 </tspan>
<tspan x="10" y="1370">  │ ├─┬ mkdirp@0.5.1 </tspan>
<tspan x="10" y="1386">  │ │ └── minimist@0.0.8 </tspan>
<tspan x="10" y="1402">  │ ├─┬ nssocket@0.6.0 </tspan>
<tspan x="10" y="1418">  │ │ ├── eventemitter2@0.4.14 </tspan>
<tspan x="10" y="1434">  │ │ └── lazy@1.0.11 </tspan>
<tspan x="10" y="1450">  │ ├── pidusage@1.1.1 </tspan>
<tspan x="10" y="1466">  │ ├─┬ pm2-axon@3.0.2 </tspan>
<tspan x="10" y="1482">  │ │ ├── amp@0.3.1 </tspan>
<tspan x="10" y="1498">  │ │ ├── amp-message@0.1.2 </tspan>
<tspan x="10" y="1514">  │ │ ├─┬ debug@2.2.0 </tspan>
<tspan x="10" y="1530">  │ │ │ └── ms@0.7.1 </tspan>
<tspan x="10" y="1546">  │ │ └── escape-regexp@0.0.1 </tspan>
<tspan x="10" y="1562">  │ ├─┬ pm2-axon-rpc@0.4.5 </tspan>
<tspan x="10" y="1578">  │ │ └── fclone@1.0.8 </tspan>
<tspan x="10" y="1594">  │ ├─┬ pm2-deploy@0.3.5 </tspan>
<tspan x="10" y="1610">  │ │ └── tv4@1.3.0 </tspan>
<tspan x="10" y="1626">  │ ├─┬ pm2-multimeter@0.1.2 </tspan>
<tspan x="10" y="1642">  │ │ └── charm@0.1.2 </tspan>
<tspan x="10" y="1658">  │ ├── semver@5.3.0 </tspan>
<tspan x="10" y="1674">  │ ├─┬ shelljs@0.7.7 </tspan>
<tspan x="10" y="1690">  │ │ ├─┬ glob@7.1.1 </tspan>
<tspan x="10" y="1706">  │ │ │ ├── fs.realpath@1.0.0 </tspan>
<tspan x="10" y="1722">  │ │ │ ├─┬ inflight@1.0.6 </tspan>
<tspan x="10" y="1738">  │ │ │ │ └── wrappy@1.0.2 </tspan>
<tspan x="10" y="1754">  │ │ │ └── once@1.4.0 </tspan>
<tspan x="10" y="1770">  │ │ ├── interpret@1.0.3 </tspan>
<tspan x="10" y="1786">  │ │ └─┬ rechoir@0.6.2 </tspan>
<tspan x="10" y="1802">  │ │   └─┬ resolve@1.3.2 </tspan>
<tspan x="10" y="1818">  │ │     └── path-parse@1.0.5 </tspan>
<tspan x="10" y="1834">  │ ├─┬ source-map-support@0.4.14 </tspan>
<tspan x="10" y="1850">  │ │ └── source-map@0.5.6 </tspan>
<tspan x="10" y="1866">  │ ├── sprintf-js@1.0.3 </tspan>
<tspan x="10" y="1882">  │ ├── vizion@0.2.13 </tspan>
<tspan x="10" y="1898">  │ └─┬ yamljs@0.2.8 </tspan>
<tspan x="10" y="1914">  │   └── argparse@1.0.9 </tspan>
<tspan x="10" y="1930">  └─┬ pmx@1.1.0 </tspan>
<tspan x="10" y="1946">    ├── json-stringify-safe@5.0.1 </tspan>
<tspan x="10" y="1962">    └─┬ vxx@1.1.1 </tspan>
<tspan x="10" y="1978">      ├─┬ continuation-local-storage@3.2.0 </tspan>
<tspan x="10" y="1994">      │ ├── async-listener@0.6.5 </tspan>
<tspan x="10" y="2010">      │ └─┬ emitter-listener@1.0.1 </tspan>
<tspan x="10" y="2026">      │   └── shimmer@1.0.0 </tspan>
<tspan x="10" y="2042">      ├── extend@3.0.0 </tspan>
<tspan x="10" y="2058">      ├── is@3.2.1 </tspan>
<tspan x="10" y="2074">      ├── lodash.findindex@4.6.0 </tspan>
<tspan x="10" y="2090">      ├── lodash.isequal@4.5.0 </tspan>
<tspan x="10" y="2106">      ├── lodash.merge@4.6.0 </tspan>
<tspan x="10" y="2122">      ├── methods@1.1.2 </tspan>
<tspan x="10" y="2138">      ├── shimmer@1.1.0 </tspan>
<tspan x="10" y="2154">      └── uuid@3.0.1</tspan>
</text>
</svg>
